# xmcd CD database file
#
# Track frame offsets:
#	180
#	17483
#	45980
#	64733
#	84887
#	106123
#	129071
#	151260
#	176288
#	198992
#	210159
#	234306
#
# Disc length: 3454 seconds
#
# Revision: 0
# Processed by: cddbd v1.5.2PL0 Copyright (c) Steve Scherf et al.
# Submitted via: CDex 1.70beta2
#
DISCID=780d7c0c
DTITLE=Michel Donato - Michel Donato et ses amies européen 2
DYEAR=2006
DGENRE=Jazz
TTITLE0=Defrost
TTITLE1=Donuts
TTITLE2=Absolutely
TTITLE3=Hommage à Yvon
TTITLE4=Et des flat five
TTITLE5=When Iris eyes are smiling
TTITLE6=Italian waltz (Mafiodo ma non troppo)
TTITLE7=The slippery slope
TTITLE8=Entre sol
TTITLE9=Soro
TTITLE10=Song for Hola
TTITLE11=Nhop blues
EXTD=YEAR: 2006
EXTT0=
EXTT1=
EXTT2=
EXTT3=
EXTT4=
EXTT5=
EXTT6=
EXTT7=
EXTT8=
EXTT9=
EXTT10=
EXTT11=
PLAYORDER=
